Coordinates
version=1
nRows=27
nColumns=12
inDegrees=yes

Units are S.I. units (second, meters, Newtons, ...)
Angles are in degrees

endheader
time	SC_y	SC_z	SC_x	AC_y	AC_z	AC_x	GH_y	GH_z	GH_yy	EL_x	PS_y
       0.0              -28.13          6.186          27.42          62.15          4.176         -19.32         -134.5         -9.428          129.1          109.7          88.14
    0.0298              -28.13           6.19          27.42          62.15          4.176         -19.32         -134.4         -9.414          129.0          109.7          88.15
    0.0596              -28.13          6.195          27.42          62.14          4.176         -19.31         -134.4           -9.4          129.0          109.7          88.16
   0.08939              -28.13            6.2          27.42          62.14          4.176         -19.31         -134.3         -9.384          129.0          109.7          88.17
    0.1192              -28.13          6.205          27.43          62.13          4.176          -19.3         -134.3         -9.367          128.9          109.7          88.18
     0.149              -28.13          6.211          27.43          62.13          4.176          -19.3         -134.2          -9.35          128.9          109.7          88.19
    0.1788              -28.13          6.217          27.43          62.12          4.176         -19.29         -134.2         -9.331          128.9          109.7           88.2
    0.2086              -28.13          6.223          27.43          62.12          4.176         -19.28         -134.1          -9.31          128.8          109.7          88.22
    0.2384              -28.13           6.23          27.44          62.11          4.176         -19.28         -134.0         -9.289          128.8          109.7          88.23
    0.2682              -28.13          6.237          27.44           62.1          4.176         -19.27         -134.0         -9.265          128.7          109.7          88.24
     0.298              -28.13          6.245          27.44          62.09          4.176         -19.26         -133.9          -9.24          128.7          109.7          88.26
    0.3278              -28.13          6.253          27.45          62.08          4.176         -19.25         -133.8         -9.214          128.6          109.7          88.28
    0.3576              -28.13          6.262          27.45          62.08          4.176         -19.25         -133.7         -9.185          128.6          109.7          88.29
    0.3874              -28.13          6.272          27.46          62.07          4.176         -19.24         -133.6         -9.153          128.5          109.6          88.31
    0.4172              -28.13          6.283          27.46          62.05          4.176         -19.23         -133.5         -9.119          128.5          109.6          88.34
     0.447              -28.13          6.294          27.47          62.04          4.176         -19.22         -133.4         -9.083          128.4          109.6          88.36
    0.4768              -28.13          6.307          27.47          62.03          4.176          -19.2         -133.3         -9.043          128.3          109.6          88.38
    0.5066              -28.13           6.32          27.48          62.02          4.176         -19.19         -133.1         -8.999          128.2          109.6          88.41
    0.5364              -28.13          6.335          27.48           62.0          4.176         -19.18         -133.0         -8.952          128.1          109.6          88.44
    0.5662              -28.13          6.351          27.49          61.98          4.176         -19.16         -132.8           -8.9          128.0          109.6          88.47
     0.596              -28.13          6.369           27.5          61.97          4.176         -19.14         -132.6         -8.843          127.9          109.6          88.51
    0.6258              -28.13          6.389          27.51          61.95          4.177         -19.12         -132.4          -8.78          127.8          109.6          88.55
    0.6556              -28.13          6.411          27.52          61.92          4.177          -19.1         -132.2          -8.71          127.7          109.5          88.59
    0.6854              -28.13          6.435          27.53           61.9          4.177         -19.08         -132.0         -8.634          127.5          109.5          88.64
    0.7152              -28.13          6.461          27.54          61.87          4.177         -19.06         -131.7         -8.548          127.3          109.5          88.69
     0.745              -28.13          6.491          27.56          61.84          4.177         -19.03         -131.4         -8.453          127.2          109.5          88.75
    0.7747              -28.13          6.525          27.57          61.81          4.177         -18.99         -131.1         -8.346          126.9          109.4          88.82
